<?xml version="1.0" encoding="UTF-8"?>
<svg xmlns="http://www.w3.org/2000/svg" viewBox="0 0 960 256" role="img" aria-label="LUMA">
  <defs>
    <linearGradient id="lumaBg" x1="0" y1="0" x2="1" y2="1">
      <stop offset="0%" stop-color="#6366F1"/>
      <stop offset="55%" stop-color="#8B5CF6"/>
      <stop offset="100%" stop-color="#EC4899"/>
    </linearGradient>
    <linearGradient id="lumaText" x1="0" y1="0" x2="1" y2="0">
      <stop offset="0%" stop-color="#4F46E5"/>
      <stop offset="100%" stop-color="#EC4899"/>
    </linearGradient>
  </defs>
  <g>
    <rect x="12" y="12" width="232" height="232" rx="56" ry="56" fill="url(#lumaBg)"/>
    <rect x="56" y="56" width="36" height="130" rx="18" fill="#FFFFFF"/>
    <rect x="56" y="150" width="150" height="36" rx="18" fill="#FFFFFF"/>
    <g transform="translate(186 72)">
      <path d="M0 -26 L6 -6 L26 0 L6 6 L0 26 L-6 6 L-26 0 L-6 -6 Z" fill="#FFFFFF"/>
    </g>
    <g transform="translate(150 40)" opacity="0.9">
      <path d="M0 -10 L2 -2 L10 0 L2 2 L0 10 L-2 2 L-10 0 L-2 -2 Z" fill="#FFFFFF"/>
    </g>
  </g>
  <g transform="translate(284 0)">
    <text x="0" y="180"
          font-family="'Inter','Segoe UI',system-ui,sans-serif"
          font-weight="800" font-size="172" letter-spacing="-6"
          fill="url(#lumaText)">LUMA</text>
    <text x="6" y="222"
          font-family="'Inter','Segoe UI',system-ui,sans-serif"
          font-weight="500" font-size="24" letter-spacing="10"
          fill="#64748B">ADMIN DASHBOARD</text>
  </g>
</svg>
